<svg width="230" height="52" viewBox="0 0 230 52" fill="none" xmlns="http://www.w3.org/2000/svg">
<g clip-path="url(#clip0_1_87)">
<path fill-rule="evenodd" clip-rule="evenodd" d="M65.1229 1.37421C67.3518 1.37421 69.3065 1.86661 70.9867 2.85153C72.6785 3.83635 73.9987 5.21627 74.9474 6.99131C75.8962 8.76634 76.3705 10.8505 76.3705 13.2439V14.515C76.3705 16.9199 75.8962 19.0099 74.9474 20.7848C73.9987 22.5599 72.6671 23.9398 70.9525 24.9247C69.2493 25.8981 67.2547 26.3848 64.9685 26.3848H57.6987V1.37421H65.1229ZM64.9685 22.829H62.1224V4.94715H65.1229C66.586 4.94715 67.8262 5.26783 68.8435 5.90909C69.8609 6.55035 70.6267 7.48371 71.141 8.70907C71.6668 9.93442 71.9298 11.4345 71.9298 13.2095V14.515C71.9298 16.2442 71.6668 17.733 71.141 18.9812C70.6153 20.218 69.838 21.1685 68.8092 21.8327C67.7805 22.4969 66.5003 22.829 64.9685 22.829Z" fill="white"/>
<path d="M79.993 7.79868V26.3848H84.2452V7.79868H79.993Z" fill="white"/>
<path d="M80.3532 1.32265C79.9302 1.74634 79.7187 2.28459 79.7187 2.9374C79.7187 3.57866 79.9302 4.11691 80.3532 4.55203C80.7761 4.97573 81.3647 5.18769 82.1191 5.18769C82.8735 5.18769 83.4679 4.97573 83.9023 4.55203C84.3367 4.11691 84.5539 3.57866 84.5539 2.9374C84.5539 2.28459 84.3367 1.74634 83.9023 1.32265C83.4679 0.887518 82.8735 0.669953 82.1191 0.669953C81.3647 0.669953 80.7761 0.887518 80.3532 1.32265Z" fill="white"/>
<path fill-rule="evenodd" clip-rule="evenodd" d="M103.933 25.8522V7.79868H100.058L99.8847 9.66003C99.3702 9.00722 98.748 8.49556 98.0181 8.12497C97.1607 7.67841 96.1263 7.45502 94.9147 7.45502C93.383 7.45502 92.0571 7.85585 90.9369 8.65751C89.8281 9.44773 88.9708 10.5585 88.365 11.9899C87.7706 13.41 87.4734 15.059 87.4734 16.9371V17.2979C87.4734 19.1072 87.7763 20.7219 88.3821 22.1419C88.988 23.5619 89.8453 24.6842 90.954 25.5087C92.0628 26.3218 93.3716 26.7283 94.8804 26.7283C96.4236 26.7283 97.698 26.3389 98.7039 25.5603C99.0505 25.295 99.3706 24.9958 99.6641 24.6627V25.921C99.6641 27.3524 99.264 28.4518 98.4638 29.2191C97.6752 29.9863 96.5892 30.37 95.2062 30.37C94.326 30.37 93.4859 30.181 92.6857 29.8031C91.8971 29.4366 91.1712 28.8698 90.5082 28.1025L88.5193 30.6791C89.0679 31.4006 89.7481 31.9847 90.5597 32.4313C91.3712 32.8779 92.2056 33.1985 93.063 33.3932C93.9316 33.5994 94.7204 33.7024 95.429 33.7024C97.1094 33.7024 98.5839 33.3989 99.8527 32.792C101.133 32.185 102.133 31.2918 102.853 30.1123C103.573 28.9442 103.933 27.5243 103.933 25.8522ZM99.6641 13.0181V21.0789C99.3362 21.7283 98.8847 22.2488 98.3095 22.6401C97.7037 23.0408 96.9208 23.2413 95.9606 23.2413C94.9775 23.2413 94.1717 22.9778 93.5431 22.4511C92.9258 21.9129 92.4686 21.1971 92.1714 20.304C91.8741 19.3992 91.7256 18.3972 91.7256 17.2979V16.9371C91.7256 15.8263 91.8741 14.8186 92.1714 13.9138C92.48 12.9977 92.9486 12.2763 93.5773 11.7495C94.206 11.2112 95.0118 10.9421 95.9948 10.9421C96.7036 10.9421 97.3208 11.0624 97.8466 11.3028C98.3724 11.5433 98.8124 11.8755 99.1669 12.2992C99.3554 12.5175 99.5211 12.7572 99.6641 13.0181Z" fill="white"/>
<path d="M107.882 26.3848H112.134V7.79868H107.882V26.3848Z" fill="white"/>
<path d="M108.242 1.32265C107.819 1.74634 107.607 2.28459 107.607 2.9374C107.607 3.57866 107.819 4.11691 108.242 4.55203C108.665 4.97573 109.253 5.18769 110.008 5.18769C110.762 5.18769 111.357 4.97573 111.791 4.55203C112.225 4.11691 112.442 3.57866 112.442 2.9374C112.442 2.28459 112.225 1.74634 111.791 1.32265C111.357 0.887518 110.762 0.669953 110.008 0.669953C109.253 0.669953 108.665 0.887518 108.242 1.32265Z" fill="white"/>
<path d="M121.397 10.9421H124.689V7.79868H121.397V3.24654H117.145V7.79868H114.162V10.9421H117.145V21.4548C117.145 22.7374 117.351 23.7681 117.763 24.5467C118.185 25.314 118.763 25.8694 119.495 26.2131C120.237 26.5565 121.083 26.7283 122.032 26.7283C122.637 26.7283 123.163 26.6882 123.61 26.6081C124.066 26.5279 124.467 26.4306 124.809 26.3161V23.0351C124.65 23.0695 124.438 23.1038 124.175 23.1382C123.912 23.1725 123.638 23.1898 123.352 23.1898C122.963 23.1898 122.621 23.1382 122.323 23.0351C122.026 22.9321 121.798 22.7374 121.638 22.4511C121.477 22.1533 121.397 21.7182 121.397 21.1456V10.9421Z" fill="white"/>
<path fill-rule="evenodd" clip-rule="evenodd" d="M136.901 11.5262C137.439 12.0987 137.708 12.866 137.708 13.8279V15.0647H135.136C132.427 15.0647 130.335 15.5915 128.86 16.6451C127.385 17.6987 126.649 19.2103 126.649 21.1799C126.649 22.2336 126.917 23.184 127.455 24.0315C128.003 24.8674 128.752 25.526 129.701 26.0068C130.649 26.4879 131.73 26.7283 132.941 26.7283C133.901 26.7283 134.742 26.5795 135.462 26.2817C136.194 25.9725 136.821 25.5831 137.348 25.1137C137.53 24.9505 137.7 24.7848 137.857 24.6163C137.858 24.6275 137.86 24.6387 137.862 24.6499C137.977 25.3598 138.13 25.9382 138.325 26.3848H142.68V26.0928C142.452 25.6004 142.274 25.022 142.149 24.3578C142.023 23.6936 141.96 22.9264 141.96 22.056V13.8623C141.96 12.4309 141.645 11.2399 141.016 10.2894C140.4 9.33889 139.548 8.62892 138.462 8.15938C137.377 7.68984 136.136 7.45502 134.742 7.45502C133.176 7.45502 131.815 7.72414 130.661 8.26239C129.518 8.80064 128.632 9.51061 128.003 10.3924C127.374 11.2628 127.061 12.1961 127.061 13.1924H131.313C131.313 12.7114 131.443 12.282 131.707 11.904C131.97 11.5262 132.341 11.2284 132.822 11.0108C133.301 10.7818 133.862 10.6673 134.502 10.6673C135.576 10.6673 136.376 10.9535 136.901 11.5262ZM137.708 21.1446V17.693H135.444C133.935 17.693 132.799 17.9735 132.033 18.5346C131.278 19.0843 130.901 19.8344 130.901 20.7848C130.901 21.5178 131.153 22.1305 131.655 22.6229C132.158 23.1038 132.867 23.3444 133.782 23.3444C134.616 23.3444 135.341 23.1783 135.959 22.8461C136.588 22.5027 137.079 22.0846 137.434 21.5922C137.541 21.4399 137.632 21.2906 137.708 21.1446Z" fill="white"/>
<path d="M146.011 26.3848H150.264V0H146.011V26.3848Z" fill="white"/>
<path fill-rule="evenodd" clip-rule="evenodd" d="M155.465 12.4962L154.977 12.6616C154.887 12.7525 154.78 12.8204 154.679 12.8846C154.492 13.003 154.325 13.109 154.325 13.3237C154.325 13.6547 154.162 14.6476 154.162 14.6476C154.032 14.78 154.162 15.7509 154.325 15.9716C154.487 16.1922 154.486 16.9645 154.486 16.9645L154.325 19.447V21.7639C154.216 22.7018 153.999 24.6436 153.999 24.9083C153.999 25.1732 153.673 27.3356 153.511 28.3838C153.414 29.0008 153.306 29.1999 153.208 29.3815C153.139 29.5085 153.075 29.6268 153.022 29.8733C152.886 30.508 152.859 31.5283 152.859 31.5283C152.859 31.5283 152.831 32.2725 153.022 32.6867C153.156 32.9795 153.26 33.1495 153.511 33.3487C153.727 33.5204 153.908 33.5681 154.14 33.6293C154.198 33.6445 154.259 33.6606 154.325 33.6796C154.818 33.8226 155.115 33.8637 155.627 33.8452C156.213 33.824 157.093 33.5142 157.093 33.5142C157.093 33.5142 157.524 33.0343 157.745 32.6867C158.151 32.048 158.262 31.5325 158.398 30.9033C158.444 30.687 158.494 30.4572 158.559 30.2043C158.7 29.659 158.769 29.306 158.868 28.8024L158.885 28.7148C158.994 28.1631 159.211 26.9936 159.211 26.7289C159.211 26.464 159.319 26.0668 159.374 25.9014L159.7 24.5774C159.7 24.5774 159.973 24.1995 160.025 23.9154C160.04 23.8339 160.024 23.761 160.007 23.6915C159.986 23.5986 159.966 23.5118 160.025 23.4189C160.133 23.2502 160.293 23.3388 160.474 23.4398C160.589 23.504 160.714 23.5733 160.84 23.5844L160.849 23.5852L160.901 23.5899L160.902 23.5899C161.119 23.6096 161.261 23.6225 161.49 23.5844C161.734 23.5439 161.888 23.4643 162.072 23.369C162.143 23.3324 162.218 23.2934 162.305 23.2535C162.366 23.225 162.422 23.2005 162.475 23.1775C162.643 23.1038 162.777 23.0455 162.956 22.9224C163.443 22.5894 163.663 22.2928 163.934 21.7639C164.118 21.4011 164.188 21.1731 164.259 20.771C164.35 20.2623 164.374 19.9506 164.259 19.447C164.182 19.108 164.103 18.9221 163.934 18.6195C163.776 18.3386 163.682 18.173 163.445 17.9575C163.135 17.6756 162.888 17.596 162.498 17.4707L162.468 17.461C162.099 17.3423 161.878 17.2829 161.49 17.2956C161.193 17.3053 161.018 17.358 160.751 17.4386C160.727 17.4458 160.702 17.4533 160.676 17.461C160.348 17.5594 159.862 17.792 159.862 17.792L159.7 17.2956V16.7991L159.862 16.3026C159.862 16.3026 159.988 16.111 160.025 15.9716C160.074 15.788 160.056 15.6711 160.027 15.4858L160.025 15.4751C159.994 15.2732 159.962 15.1561 159.862 14.9786C159.765 14.807 159.659 14.7199 159.531 14.6161L159.531 14.6159C159.482 14.5758 159.43 14.5331 159.374 14.4822C158.967 14.111 158.234 13.6547 158.234 13.6547L157.093 12.9926L156.117 12.4962H155.465ZM160.608 19.129C160.829 18.9467 160.978 18.8388 161.26 18.7979C161.385 18.7796 161.459 18.7819 161.585 18.7979C161.784 18.8232 161.912 18.843 162.074 18.9634C162.236 19.083 162.291 19.2102 162.365 19.3811L162.377 19.4096C162.384 19.426 162.391 19.4427 162.399 19.4599C162.499 19.6817 162.521 19.831 162.553 20.0569C162.556 20.0779 162.559 20.0995 162.562 20.1219C162.571 20.183 162.581 20.2405 162.589 20.2956L162.59 20.2971L162.59 20.2987L162.59 20.2996C162.637 20.5887 162.673 20.8102 162.562 21.1149C162.453 21.4182 162.311 21.5614 162.074 21.7769C162.05 21.799 162.027 21.8203 162.005 21.8407L162.004 21.8413C161.873 21.964 161.775 22.0554 161.585 22.1078C161.466 22.1409 161.376 22.1311 161.276 22.1201C161.221 22.1141 161.164 22.1078 161.096 22.1078C160.985 22.1078 160.887 22.1243 160.794 22.14C160.623 22.1688 160.47 22.1946 160.282 22.1078C160.036 21.9944 159.915 21.8566 159.794 21.6113C159.645 21.3095 159.697 21.0688 159.764 20.761C159.774 20.7151 159.784 20.6677 159.794 20.6184C159.862 20.2774 159.95 20.0934 160.12 19.7909C160.125 19.7822 160.129 19.7737 160.134 19.7652L160.142 19.7504L160.162 19.7154C160.294 19.477 160.384 19.3138 160.608 19.129Z" fill="white"/>
<path d="M174.247 12.762C174.247 12.762 173.611 12.093 173.092 12.093C172.573 12.093 171.938 12.762 171.938 12.762L170.125 14.0998C170.125 14.0998 168.936 15.0365 168.311 15.7722C167.798 16.3763 167.157 17.4445 167.157 17.4445C167.157 17.4445 166.388 18.6324 166.003 19.4514C165.704 20.0863 165.343 21.1238 165.343 21.1238C165.343 21.1238 165.208 22.2581 165.343 22.9633C165.476 23.6537 165.616 24.0518 166.003 24.6357C166.358 25.1723 167.157 25.8063 167.157 25.8063C167.157 25.8063 167.847 26.0717 168.311 26.1407C168.821 26.2167 169.128 26.2541 169.63 26.1407C170.121 26.0302 170.393 25.8466 170.774 25.5893C170.83 25.5517 170.888 25.5126 170.949 25.4719C171.089 25.3788 171.19 25.2963 171.292 25.2128C171.386 25.1358 171.481 25.058 171.609 24.9701C171.976 24.7173 172.223 24.5866 172.575 24.4009C172.634 24.3695 172.697 24.3365 172.763 24.3011C173.018 24.1654 173.423 23.9667 173.423 23.9667C173.628 24.1235 173.423 24.6357 173.423 24.6357L173.752 25.8063C173.752 25.8063 173.919 26.5239 174.247 26.8097C174.602 27.1199 175.236 27.3114 175.236 27.3114C175.236 27.3114 175.985 27.5203 176.39 27.4786C176.852 27.4312 177.094 27.1815 177.38 26.8097C177.556 26.5791 177.709 26.1407 177.709 26.1407C177.709 26.1407 177.629 25.6168 177.38 25.4719C177.156 25.3423 176.943 25.3423 176.72 25.4719C176.47 25.6168 176.225 25.8063 176.225 25.8063C176.225 25.8063 175.903 26.0823 175.73 26.1407C175.344 26.2714 175.401 25.1373 175.401 25.1373C175.401 25.1373 175.367 24.3208 175.401 23.7995C175.435 23.2653 175.512 22.8953 175.599 22.4713L175.599 22.4711L175.599 22.4708L175.599 22.4706L175.599 22.4703L175.599 22.4701C175.642 22.2651 175.686 22.0475 175.73 21.7926C175.775 21.5359 175.848 21.3193 175.917 21.1143C176.041 20.7449 176.152 20.4133 176.061 19.953C175.992 19.6084 175.73 19.1169 175.73 19.1169L175.236 18.7824C175.236 18.7824 174.605 18.6357 174.247 18.7824C173.733 18.9928 173.423 19.953 173.423 19.953L172.433 21.4582C172.433 21.4582 171.926 22.4533 171.444 22.9633C170.998 23.4347 170.125 23.9667 170.125 23.9667C170.125 23.9667 169.806 24.0488 169.63 23.9667C169.369 23.8444 169.3 23.5899 169.3 23.2978C169.3 23.1017 169.387 22.9831 169.486 22.8486C169.534 22.7828 169.585 22.7132 169.63 22.6288C169.809 22.294 169.911 22.1056 170.125 21.7926C170.412 21.3735 170.605 21.1613 170.949 20.7892C171.255 20.4586 171.514 20.2441 171.786 20.0182C171.986 19.8522 172.194 19.6802 172.433 19.4514C172.779 19.12 173.016 18.8736 173.282 18.597L173.283 18.5969L173.283 18.5963L173.284 18.5959L173.285 18.5941L173.288 18.591C173.428 18.4459 173.576 18.2922 173.752 18.1135L175.236 16.6083L175.73 15.7722V14.6016L175.236 13.7654L174.247 12.762Z" fill="white"/>
<path d="M178.357 11.4933C178.624 11.232 179.164 10.9937 179.164 10.9937L180.938 11.4933L182.068 12.8258L182.713 14.4913L183.197 15.8237C183.197 15.8237 183.275 16.3456 183.519 16.4899C183.784 16.6459 183.965 16.4193 184.165 16.1687C184.264 16.0453 184.367 15.916 184.487 15.8237C184.658 15.6929 184.783 15.5692 184.905 15.4495C185.064 15.2919 185.217 15.1414 185.456 14.991C185.759 14.7997 185.906 14.7324 186.138 14.6251L186.138 14.625C186.22 14.5876 186.311 14.5454 186.424 14.4913C186.807 14.3069 187.553 13.9916 187.553 13.9916L187.876 14.4913C187.876 14.4913 187.503 15.0169 187.23 15.3241C186.998 15.586 186.786 15.7542 186.571 15.9237L186.571 15.9238C186.369 16.0844 186.164 16.2462 185.94 16.4899C185.445 17.0275 185.159 17.3406 184.811 17.9889C184.609 18.3633 184.524 18.6756 184.435 19.0013C184.366 19.2546 184.295 19.5161 184.164 19.821C183.979 20.257 183.841 20.527 183.653 20.893L183.603 20.9891C183.576 21.0415 183.549 21.096 183.519 21.1534C183.218 21.7462 182.713 22.6524 182.713 22.6524C182.713 22.6524 182.035 23.7753 181.584 24.4845C181.479 24.6489 181.392 24.7812 181.307 24.9087L181.307 24.9092C181.19 25.0859 181.079 25.2534 180.938 25.4838C180.867 25.6005 180.826 25.7175 180.787 25.8282C180.719 26.0222 180.658 26.1969 180.454 26.3166C180.003 26.5828 179.164 25.9835 179.164 25.9835L178.357 25.4838C178.357 25.4838 178.016 25.1078 177.874 24.8176C177.504 24.0634 177.874 21.9862 177.874 21.9862V14.4913C177.874 14.2472 177.859 14.0029 177.845 13.7622C177.795 12.9048 177.747 12.0922 178.357 11.4933Z" fill="white"/>
<path fill-rule="evenodd" clip-rule="evenodd" d="M219.991 10.9937C219.991 10.9937 219.391 11.232 219.095 11.4933C218.417 12.0922 218.47 12.9048 218.525 13.7623C218.541 14.003 218.557 14.2472 218.557 14.4913V21.9862C218.557 21.9862 218.519 22.1803 218.477 22.4714C218.446 22.2348 218.387 22.0334 218.165 21.9295C217.993 21.8482 217.677 21.9295 217.677 21.9295C217.677 21.9295 217.157 22.3048 216.863 22.5915C216.666 22.7833 216.492 23.0503 216.319 23.3141L216.319 23.3144C216.177 23.5315 216.036 23.7463 215.886 23.9154C215.464 24.3902 214.908 24.743 214.908 24.743C214.908 24.743 214.638 25.0029 214.42 25.0739L214.388 25.0845C214.159 25.1592 213.962 25.2236 213.768 25.0739C213.56 24.9124 213.606 24.412 213.606 24.412V23.088C213.606 22.426 213.768 21.433 213.768 21.433L213.932 21.102C213.932 21.102 214.257 20.771 214.746 20.44C215.234 20.1091 215.56 19.9435 215.56 19.9435C215.56 19.9435 215.932 19.648 216.211 19.4471C216.543 19.2081 216.616 19.1141 216.863 18.7851C217.194 18.3429 217.428 17.9562 217.677 17.4611C217.704 17.4068 217.73 17.3567 217.755 17.3092C217.872 17.0851 217.959 16.9173 218.003 16.6336C218.072 16.1821 217.99 15.9061 217.84 15.4751C217.745 15.2026 217.514 14.8132 217.514 14.8132L216.7 13.9857C216.7 13.9857 215.91 13.374 215.397 12.9927C215.25 12.8837 215.13 12.7815 215.016 12.6852C214.789 12.4918 214.588 12.3216 214.257 12.1653C214.238 12.1567 214.22 12.148 214.202 12.1392C213.789 11.9428 213.259 11.69 212.792 12.1651C212.302 12.6617 211.734 13.6527 211.651 13.8202C211.488 14.1511 210.837 15.3097 210.837 15.3097C210.79 15.4057 210.737 15.5086 210.679 15.6205L210.676 15.625L210.676 15.6264C210.535 15.8988 210.366 16.2244 210.185 16.6336C210.07 16.8956 209.965 17.112 209.866 17.3174C209.695 17.6705 209.54 17.991 209.371 18.4541C209.325 18.582 209.28 18.6984 209.238 18.8084L209.237 18.8103L209.236 18.8127C209.071 19.2444 208.944 19.5761 208.883 20.1091C208.849 20.4005 208.859 20.6108 208.87 20.8462L208.87 20.8466C208.876 20.974 208.883 21.1087 208.883 21.2676V22.426C208.883 22.426 208.925 23.0455 209.045 23.419C209.078 23.5215 209.126 23.6312 209.18 23.7407C209.066 23.778 208.985 23.8129 208.985 23.8129C208.985 23.8129 208.628 24.2859 208.284 24.4443C208.032 24.5598 207.583 24.6022 207.583 24.6022H207.057L206.882 24.1287C206.882 24.1287 206.97 23.6436 207.057 23.3393C207.166 22.9618 207.408 22.3921 207.408 22.3921L207.758 21.4449C207.758 21.4449 208.041 20.7845 208.108 20.3399C208.174 19.9124 208.211 19.6564 208.108 19.2348C208.03 18.9105 207.758 18.4455 207.758 18.4455C207.758 18.4455 207.602 18.1084 207.408 17.972C207.133 17.7789 206.531 17.8141 206.531 17.8141H205.656C205.656 17.8141 205.115 18.0929 204.779 18.2876C204.676 18.3474 204.581 18.4008 204.492 18.4512C204.152 18.6425 203.892 18.7894 203.552 19.077C203.163 19.4068 202.676 20.0242 202.676 20.0242C202.676 20.0242 202.398 20.3399 202.151 20.3399C201.904 20.3399 201.769 20.2046 201.625 20.0242C201.463 19.8216 201.493 19.7008 201.548 19.4819C201.574 19.3764 201.606 19.2481 201.625 19.077C201.67 18.6678 201.645 17.9529 201.632 17.5712C201.628 17.462 201.625 17.3801 201.625 17.3404C201.625 17.1824 201.625 16.7089 201.45 16.3933C201.45 16.3933 201.13 15.6472 200.748 15.2882C200.432 14.9909 200.177 14.875 199.791 14.6998C199.761 14.6859 199.729 14.6716 199.697 14.6569C199.65 14.6351 199.605 14.6142 199.562 14.5944C199.312 14.4771 199.131 14.3928 198.821 14.3411C198.485 14.2849 198.277 14.2664 197.945 14.3411C197.648 14.408 197.461 14.4618 197.245 14.6569C197.027 14.8518 196.855 15.0416 196.718 15.2882L196.717 15.2896C196.582 15.5352 196.543 15.6045 196.543 15.9197C196.543 16.1147 196.546 16.2796 196.549 16.4356C196.554 16.7235 196.559 16.9809 196.543 17.3405C196.511 18.0608 196.428 18.5608 196.331 19.1391C196.286 19.4073 196.239 19.6924 196.192 20.0242C196.063 20.9497 195.842 22.3921 195.842 22.3921C195.842 22.3921 195.708 23.3662 195.842 23.9708C195.858 24.044 195.872 24.1127 195.884 24.1779C195.937 24.4534 195.978 24.6691 196.192 24.9179C196.403 25.1613 196.894 25.3915 196.894 25.3915C196.894 25.3915 197.409 25.6411 197.77 25.7072C198.102 25.7682 198.324 25.7491 198.622 25.7236C198.684 25.7182 198.75 25.7125 198.821 25.7072C198.915 25.7003 199 25.6964 199.081 25.6927C199.359 25.68 199.58 25.67 199.873 25.5494C200.184 25.4214 200.574 25.0758 200.574 25.0758C200.574 25.0758 201.201 24.3909 201.625 23.9708C201.925 23.6742 202.187 23.4569 202.444 23.244C202.745 22.9941 203.039 22.7504 203.378 22.3921C203.981 21.7538 204.779 20.6557 204.779 20.6557C204.779 20.6557 205.111 20.4106 205.305 20.4978C205.549 20.608 205.305 21.1293 205.305 21.1293C205.305 21.1293 205.073 22.474 204.954 23.3393C204.879 23.8934 204.779 24.76 204.779 24.76C204.779 24.76 204.767 25.2841 204.954 25.5494C205.138 25.8096 205.656 26.023 205.656 26.023C205.656 26.023 205.949 26.264 206.181 26.3387C206.503 26.4424 207.057 26.3387 207.057 26.3387L207.758 26.023C207.758 26.023 208.422 25.7714 208.809 25.5494C209.098 25.3839 209.511 25.0758 209.511 25.0758L209.947 24.8135C210.031 24.897 210.12 24.9907 210.185 25.0739C210.251 25.1561 210.291 25.231 210.331 25.3041C210.379 25.3922 210.425 25.4778 210.511 25.5705C210.719 25.7938 210.905 25.8772 211.149 25.9865C211.205 26.0113 211.263 26.0375 211.326 26.067C211.69 26.2393 212.302 26.3979 212.302 26.3979C212.302 26.3979 212.994 26.5931 213.442 26.5634C213.904 26.5328 214.582 26.2324 214.582 26.2324C214.582 26.2324 215.308 25.9899 215.723 25.7359C216.225 25.4284 216.863 24.743 216.863 24.743C216.863 24.743 217.373 24.149 217.677 23.7499C217.788 23.6043 217.922 23.4886 218.049 23.3789C218.195 23.2521 218.332 23.1334 218.415 22.9855C218.353 23.6268 218.337 24.4128 218.557 24.8176C218.716 25.1078 219.095 25.4838 219.095 25.4838L219.991 25.9835C219.991 25.9835 220.924 26.5828 221.425 26.3166C221.651 26.1969 221.719 26.0224 221.795 25.8285C221.838 25.7177 221.884 25.6006 221.963 25.4838C222.119 25.253 222.243 25.0853 222.373 24.9083C222.467 24.7809 222.564 24.6487 222.68 24.4845C223.181 23.7753 223.935 22.6524 223.935 22.6524C223.935 22.6524 224.496 21.7462 224.831 21.1534C224.886 21.0569 224.936 20.9684 224.984 20.8849L224.984 20.8847L224.984 20.8844L224.985 20.8834C225.191 20.5222 225.344 20.2532 225.548 19.821C225.692 19.5163 225.771 19.2551 225.848 19.002L225.848 19.0018C225.946 18.6759 226.041 18.3635 226.265 17.9889C226.653 17.3406 226.97 17.0275 227.52 16.4899C227.769 16.2462 227.996 16.0845 228.222 15.9239C228.46 15.7543 228.696 15.5861 228.954 15.3241C229.256 15.0169 229.671 14.4913 229.671 14.4913L229.312 13.9916C229.312 13.9916 228.483 14.3069 228.058 14.4913C227.93 14.5465 227.827 14.5893 227.735 14.6273C227.48 14.7333 227.317 14.801 226.982 14.991C226.717 15.1413 226.547 15.2918 226.37 15.4494C226.236 15.5691 226.096 15.6929 225.907 15.8237C225.773 15.916 225.658 16.0453 225.549 16.1687C225.326 16.4194 225.125 16.6459 224.831 16.4899C224.559 16.3456 224.473 15.8237 224.473 15.8237L223.935 14.4913L223.217 12.8258L221.963 11.4933L219.991 10.9937ZM215.56 14.4299C216.211 14.6477 216.374 15.6408 216.374 15.6408C216.374 15.6408 216.434 16.2507 216.374 16.6337L216.371 16.6527C216.311 17.0454 216.272 17.2947 216.048 17.6267C216.03 17.6541 216.012 17.6807 215.996 17.7064C215.873 17.8928 215.78 18.0337 215.56 18.1232C215.324 18.2192 215.152 18.1992 214.908 18.1232C214.883 18.1152 214.858 18.1084 214.835 18.102C214.734 18.0741 214.652 18.0516 214.582 17.9577C214.504 17.8509 214.527 17.7475 214.554 17.6303C214.566 17.5773 214.578 17.5215 214.582 17.4612C214.603 17.1833 214.648 17.0118 214.71 16.7726C214.715 16.7535 214.72 16.734 214.725 16.714C214.732 16.6882 214.739 16.6615 214.746 16.6337C214.811 16.377 214.875 16.1987 214.947 15.9993L214.947 15.9983L214.948 15.9966C214.987 15.8893 215.027 15.7758 215.072 15.6407C215.12 15.4916 215.156 15.3103 215.19 15.1343C215.245 14.8525 215.297 14.5841 215.397 14.4823C215.397 14.4823 215.475 14.4014 215.56 14.4299Z" fill="white"/>
<path d="M187.112 11.3398C186.882 11.3309 186.683 11.3233 186.569 11.3233C186.162 11.3233 185.78 11.7085 185.78 11.7085C185.78 11.7085 185.579 11.9691 185.623 12.1914L185.628 12.2166C185.658 12.373 185.671 12.4426 185.783 12.5134C185.937 12.611 186.259 12.611 186.569 12.611C186.654 12.611 186.795 12.6016 186.961 12.5904C187.405 12.5606 188.03 12.5187 188.254 12.611L188.266 12.6161C188.41 12.6748 188.452 12.6918 188.452 13.3183C188.452 13.4463 188.42 13.7673 188.375 14.2301C188.193 16.0954 187.786 20.2649 188.298 23.396C188.313 23.49 188.328 23.5787 188.341 23.6636L188.343 23.6767L188.344 23.6798C188.42 24.1583 188.477 24.5166 188.612 25.0057C188.756 25.5261 189.134 26.0597 189.237 26.1955C189.53 26.5835 189.792 26.816 190.183 27.0984C190.408 27.2602 190.812 27.4204 190.812 27.4204C190.812 27.4204 191.322 27.4833 191.751 27.4833C191.791 27.4833 191.831 27.4835 191.871 27.4837C192.146 27.4852 192.439 27.4868 192.698 27.4204C192.965 27.3521 193.104 27.2637 193.327 27.0984C193.538 26.9415 193.795 26.6784 193.795 26.6784C193.795 26.6784 194.096 26.3981 194.266 26.1955C194.397 26.0393 194.523 25.7488 194.58 25.5516C194.659 25.2804 194.601 25.1836 194.427 25.0057C194.253 24.828 193.798 25.0057 193.798 25.0057C193.606 25.1182 193.382 25.4887 193.382 25.4887C193.382 25.4887 193.095 25.8228 192.855 25.8107C192.635 25.7995 192.38 25.3911 192.38 25.3911C192.156 25.1417 192.223 24.5862 192.223 24.5862C192.223 24.5862 192.281 24.1015 192.383 23.7181C192.494 23.3023 192.523 22.9696 192.553 22.6326C192.58 22.3231 192.607 22.01 192.698 21.6254C192.882 20.8528 193.327 19.6937 193.327 19.6937C193.327 19.6937 193.616 18.756 193.638 18.6303C193.791 17.7277 193.931 16.7671 193.956 15.5085C193.967 14.9418 193.962 14.3301 193.958 13.8635C193.956 13.6056 193.954 13.3921 193.956 13.2549C193.958 12.9406 194.19 12.7164 194.423 12.5134C194.609 12.3524 196.156 12.2892 196.156 12.2892H197.727L198.041 11.8062L197.571 11.3233H196.627C196.627 11.3233 195.861 11.3041 195.37 11.3233C195.136 11.3324 194.875 11.3562 194.628 11.3787C194.16 11.4214 193.74 11.4596 193.638 11.3862C193.512 11.2968 193.488 11.1467 193.459 10.9712C193.435 10.8305 193.41 10.6736 193.327 10.5184C192.973 9.85406 192.579 9.55745 191.913 9.23061C191.509 9.03305 191.063 8.84693 190.809 8.81087C190.618 8.78393 190.184 8.79742 189.912 8.80588L189.912 8.80589C189.821 8.80872 189.748 8.81098 189.708 8.81098C189.577 8.81098 189.155 9.03734 188.923 9.29393C188.699 9.54239 188.604 9.84021 188.609 10.0988C188.61 10.1701 188.622 10.2879 188.636 10.4231L188.636 10.4234C188.673 10.7782 188.723 11.2526 188.612 11.3233C188.501 11.3936 187.703 11.3627 187.112 11.3398Z" fill="white"/>
<path d="M25.5684 4.94715V1.09937L46.4176 13.0623V36.2791L25.5684 24.7357V10.2889L38.1876 17.4125V27.4082L42.5769 29.9193V14.6937L25.5684 4.94715Z" fill="#004C6F" stroke="#004C6F" stroke-width="0.549683"/>
<path d="M35.9929 34.63L23.3737 27.7443L2.52441 39.7072L23.3737 51.6702L44.2229 39.7072L40.3822 37.5321L23.3737 47.2727L10.2057 39.7072L15.1437 36.8288L23.3737 41.7759L35.9929 34.63Z" fill="#6EAC00" stroke="#6EAC00" stroke-width="0.549683"/>
<path d="M21.1788 1.09937L0.32959 13.0623V36.2791L4.17024 34.2694V14.8414L17.8868 7.08091V12.5186L9.10822 17.4125V31.5506L21.1788 24.7357V1.09937Z" fill="#06B6BC" stroke="#06B6BC" stroke-width="0.549683"/>
<path d="M62.4679 47.2728H58.9573V46.5192H62.4679V47.2728ZM59.1406 47.2728H58.2051V40.2386H59.1406V47.2728ZM67.9894 47.2728H64.2811V46.5192H67.9894V47.2728ZM64.4644 47.2728H63.5288V40.2386H64.4644V47.2728ZM67.4975 44.0166H64.2811V43.2628H67.4975V44.0166ZM67.9411 40.997H64.2811V40.2386H67.9411V40.997ZM71.8375 47.2728H70.9117V40.2386H71.8375V47.2728ZM74.0896 40.997H68.6645V40.2386H74.0896V40.997ZM76.6067 41.2676H75.8352L74.5862 39.8521H75.6713L76.6067 41.2676ZM81.9257 45.4949C81.9257 45.2727 81.8791 45.0843 81.7858 44.9297C81.6926 44.775 81.5254 44.635 81.2843 44.5093C81.0432 44.3837 80.7009 44.2564 80.2572 44.1277C79.91 44.0278 79.5965 43.9151 79.3168 43.7894C79.0404 43.6607 78.8025 43.5141 78.6031 43.3498C78.4038 43.1855 78.2511 42.9971 78.1451 42.7846C78.039 42.572 77.9858 42.3288 77.9858 42.0551C77.9858 41.6879 78.084 41.361 78.28 41.0743C78.4794 40.7844 78.7575 40.5574 79.1143 40.3932C79.4712 40.2256 79.8891 40.142 80.368 40.142C80.8985 40.142 81.3486 40.2434 81.7183 40.4463C82.088 40.646 82.3693 40.9084 82.5623 41.2337C82.7551 41.5558 82.8515 41.9005 82.8515 42.2677H81.9112C81.9112 42.0035 81.8549 41.7685 81.7424 41.5623C81.6331 41.3562 81.4644 41.1951 81.2361 41.0792C81.0078 40.96 80.7185 40.9004 80.368 40.9004C80.0402 40.9004 79.7686 40.9503 79.5532 41.0501C79.3409 41.1501 79.1835 41.2853 79.0805 41.456C78.9777 41.6268 78.9263 41.8216 78.9263 42.0406C78.9263 42.237 78.9824 42.4126 79.095 42.5672C79.2075 42.7185 79.3844 42.8554 79.6255 42.9779C79.8666 43.1002 80.1784 43.2162 80.561 43.3257C81.0914 43.4738 81.527 43.6462 81.8678 43.8426C82.2086 44.0391 82.4593 44.2709 82.6201 44.5383C82.784 44.8057 82.866 45.1213 82.866 45.4852C82.866 45.8653 82.7647 46.197 82.5623 46.4805C82.3597 46.7639 82.0752 46.9829 81.7086 47.1375C81.3421 47.2921 80.9114 47.3694 80.4163 47.3694C80.0916 47.3694 79.7718 47.3243 79.4567 47.2341C79.1448 47.1439 78.8603 47.0087 78.6031 46.8283C78.3492 46.6479 78.1451 46.4257 77.9907 46.1616C77.8396 45.8943 77.7641 45.585 77.7641 45.234H78.6996C78.6996 45.4755 78.7462 45.6833 78.8395 45.8572C78.9326 46.0311 79.0597 46.1745 79.2203 46.2872C79.3811 46.4 79.5644 46.4836 79.7701 46.5384C79.9759 46.59 80.1913 46.6157 80.4163 46.6157C80.741 46.6157 81.0143 46.5706 81.2361 46.4805C81.4611 46.387 81.6315 46.2566 81.7473 46.0891C81.8662 45.9217 81.9257 45.7235 81.9257 45.4949ZM86.936 47.2728L86.9456 46.5192H88.4019C88.9002 46.5192 89.3165 46.4144 89.6509 46.2051C89.9852 45.9924 90.236 45.6962 90.4032 45.3161C90.5735 44.9329 90.6588 44.4836 90.6588 43.9682V43.5334C90.6588 42.9956 90.5735 42.5382 90.4032 42.1614C90.236 41.7845 89.9901 41.4963 89.6654 41.2966C89.3407 41.0969 88.9468 40.997 88.4839 40.997H86.907V40.2386H88.4839C89.1011 40.2386 89.6412 40.3738 90.1042 40.6444C90.5703 40.9117 90.9337 41.2933 91.1941 41.7894C91.4545 42.2821 91.5846 42.8667 91.5846 43.5431V43.9682C91.5846 44.6478 91.4545 45.234 91.1941 45.7268C90.9337 46.2196 90.5655 46.6013 90.0897 46.8718C89.6139 47.1391 89.0513 47.2728 88.4019 47.2728H86.936ZM87.4375 47.2728H86.502V40.2386H87.4375V47.2728ZM95.3074 40.2386C95.8347 40.2386 96.2815 40.3191 96.648 40.4801C97.0145 40.6412 97.2926 40.8795 97.4822 41.1951C97.6751 41.5076 97.7716 41.8925 97.7716 42.3498C97.7716 42.6718 97.7056 42.9649 97.5738 43.2291C97.4452 43.4931 97.2588 43.7186 97.0145 43.9054C96.7701 44.0922 96.4792 44.2307 96.1417 44.3209L95.8812 44.4223H93.7016L93.6919 43.6687H95.3315C95.6659 43.6687 95.944 43.6091 96.1657 43.49C96.3876 43.3708 96.5532 43.2114 96.6625 43.0116C96.775 42.812 96.8313 42.5913 96.8313 42.3498C96.8313 41.9407 96.7107 41.6138 96.4696 41.3691C96.2285 41.1211 95.841 40.997 95.3074 40.997H93.9186V47.2728H92.983V40.2386H95.3074ZM95.3749 44.0842H96.3538L98.0802 47.2148V47.2728H97.0772L95.3749 44.0842ZM103.529 47.2728H99.821V46.5192H103.529V47.2728ZM100.004 47.2728H99.0687V40.2386H100.004V47.2728ZM103.037 44.0166H99.821V43.2628H103.037V44.0166ZM103.481 40.997H99.821V40.2386H103.481V40.997ZM108.419 45.4949C108.419 45.2727 108.372 45.0843 108.279 44.9297C108.186 44.775 108.019 44.635 107.778 44.5093C107.537 44.3837 107.194 44.2564 106.751 44.1277C106.403 44.0278 106.09 43.9151 105.81 43.7894C105.534 43.6607 105.296 43.5141 105.097 43.3498C104.897 43.1855 104.745 42.9971 104.638 42.7846C104.532 42.572 104.479 42.3288 104.479 42.0551C104.479 41.6879 104.577 41.361 104.774 41.0743C104.973 40.7844 105.251 40.5574 105.608 40.3932C105.965 40.2256 106.383 40.142 106.862 40.142C107.392 40.142 107.842 40.2434 108.212 40.4463C108.581 40.646 108.863 40.9084 109.056 41.2337C109.249 41.5558 109.345 41.9005 109.345 42.2677H108.405C108.405 42.0035 108.348 41.7685 108.236 41.5623C108.126 41.3562 107.958 41.1951 107.729 41.0792C107.501 40.96 107.212 40.9004 106.862 40.9004C106.534 40.9004 106.262 40.9503 106.047 41.0501C105.834 41.1501 105.677 41.2853 105.574 41.456C105.471 41.6268 105.42 41.8216 105.42 42.0406C105.42 42.237 105.476 42.4126 105.588 42.5672C105.701 42.7185 105.878 42.8554 106.119 42.9779C106.36 43.1002 106.672 43.2162 107.054 43.3257C107.585 43.4738 108.02 43.6462 108.361 43.8426C108.702 44.0391 108.953 44.2709 109.114 44.5383C109.277 44.8057 109.36 45.1213 109.36 45.4852C109.36 45.8653 109.259 46.197 109.056 46.4805C108.853 46.7639 108.569 46.9829 108.202 47.1375C107.836 47.2921 107.405 47.3694 106.91 47.3694C106.585 47.3694 106.265 47.3243 105.95 47.2341C105.638 47.1439 105.354 47.0087 105.097 46.8283C104.843 46.6479 104.638 46.4257 104.484 46.1616C104.333 45.8943 104.257 45.585 104.257 45.234H105.193C105.193 45.4755 105.24 45.6833 105.333 45.8572C105.426 46.0311 105.553 46.1745 105.714 46.2872C105.875 46.4 106.058 46.4836 106.264 46.5384C106.469 46.59 106.685 46.6157 106.91 46.6157C107.234 46.6157 107.508 46.5706 107.729 46.4805C107.955 46.387 108.125 46.2566 108.241 46.0891C108.36 45.9217 108.419 45.7235 108.419 45.4949ZM114.283 45.4949C114.283 45.2727 114.236 45.0843 114.143 44.9297C114.05 44.775 113.883 44.635 113.641 44.5093C113.4 44.3837 113.058 44.2564 112.614 44.1277C112.267 44.0278 111.954 43.9151 111.674 43.7894C111.397 43.6607 111.159 43.5141 110.961 43.3498C110.761 43.1855 110.608 42.9971 110.502 42.7846C110.397 42.572 110.343 42.3288 110.343 42.0551C110.343 41.6879 110.442 41.361 110.637 41.0743C110.837 40.7844 111.114 40.5574 111.472 40.3932C111.829 40.2256 112.247 40.142 112.725 40.142C113.256 40.142 113.706 40.2434 114.076 40.4463C114.446 40.646 114.727 40.9084 114.92 41.2337C115.113 41.5558 115.208 41.9005 115.208 42.2677H114.268C114.268 42.0035 114.212 41.7685 114.1 41.5623C113.99 41.3562 113.821 41.1951 113.593 41.0792C113.365 40.96 113.076 40.9004 112.725 40.9004C112.397 40.9004 112.126 40.9503 111.911 41.0501C111.698 41.1501 111.541 41.2853 111.438 41.456C111.335 41.6268 111.283 41.8216 111.283 42.0406C111.283 42.237 111.34 42.4126 111.452 42.5672C111.565 42.7185 111.742 42.8554 111.982 42.9779C112.224 43.1002 112.535 43.2162 112.918 43.3257C113.448 43.4738 113.884 43.6462 114.225 43.8426C114.565 44.0391 114.817 44.2709 114.977 44.5383C115.141 44.8057 115.224 45.1213 115.224 45.4852C115.224 45.8653 115.122 46.197 114.92 46.4805C114.717 46.7639 114.433 46.9829 114.066 47.1375C113.7 47.2921 113.268 47.3694 112.773 47.3694C112.449 47.3694 112.129 47.3243 111.814 47.2341C111.502 47.1439 111.217 47.0087 110.961 46.8283C110.706 46.6479 110.502 46.4257 110.348 46.1616C110.197 45.8943 110.121 45.585 110.121 45.234H111.057C111.057 45.4755 111.103 45.6833 111.196 45.8572C111.29 46.0311 111.417 46.1745 111.577 46.2872C111.739 46.4 111.922 46.4836 112.127 46.5384C112.333 46.59 112.548 46.6157 112.773 46.6157C113.098 46.6157 113.371 46.5706 113.593 46.4805C113.818 46.387 113.989 46.2566 114.104 46.0891C114.223 45.9217 114.283 45.7235 114.283 45.4949ZM121.006 43.775L122.828 40.2386H123.889L121.473 44.6446V47.2728H120.533V44.6446L118.116 40.2386H119.187L121.006 43.775ZM130.052 43.9827C130.052 44.6849 129.936 45.2887 129.704 45.7945C129.473 46.3 129.147 46.6898 128.725 46.9636C128.305 47.2341 127.808 47.3694 127.235 47.3694C126.682 47.3694 126.193 47.2341 125.765 46.9636C125.337 46.6898 125.003 46.3 124.762 45.7945C124.52 45.2887 124.4 44.6849 124.4 43.9827V43.5334C124.4 42.8313 124.519 42.2273 124.757 41.7217C124.998 41.2128 125.331 40.8231 125.755 40.5526C126.183 40.2788 126.673 40.142 127.226 40.142C127.798 40.142 128.295 40.2788 128.716 40.5526C129.14 40.8231 129.468 41.2128 129.7 41.7217C129.934 42.2273 130.052 42.8313 130.052 43.5334V43.9827ZM129.126 43.5237C129.126 42.9634 129.05 42.4915 128.9 42.1082C128.748 41.7217 128.531 41.4287 128.248 41.2289C127.965 41.0293 127.625 40.9294 127.226 40.9294C126.843 40.9294 126.509 41.0293 126.223 41.2289C125.94 41.4287 125.72 41.7217 125.562 42.1082C125.408 42.4915 125.331 42.9634 125.331 43.5237V43.9827C125.331 44.5463 125.409 45.0214 125.567 45.4079C125.724 45.7945 125.947 46.0875 126.232 46.2872C126.518 46.4869 126.853 46.5868 127.235 46.5868C127.638 46.5868 127.978 46.4869 128.258 46.2872C128.541 46.0875 128.756 45.7945 128.904 45.4079C129.052 45.0214 129.126 44.5463 129.126 43.9827V43.5237ZM136.393 40.2386V44.9973C136.393 45.5254 136.274 45.9651 136.036 46.3162C135.802 46.6672 135.489 46.9314 135.101 47.1085C134.714 47.2824 134.295 47.3694 133.842 47.3694C133.366 47.3694 132.936 47.2824 132.549 47.1085C132.168 46.9314 131.864 46.6672 131.639 46.3162C131.416 45.9651 131.305 45.5254 131.305 44.9973V40.2386H132.231V44.9973C132.231 45.3645 132.299 45.6673 132.434 45.9055C132.569 46.1438 132.757 46.3226 132.998 46.4418C133.24 46.5577 133.521 46.6157 133.842 46.6157C134.167 46.6157 134.45 46.5577 134.69 46.4418C134.932 46.3226 135.118 46.1438 135.25 45.9055C135.385 45.6673 135.453 45.3645 135.453 44.9973V40.2386H136.393ZM140.174 40.2386C140.7 40.2386 141.148 40.3191 141.515 40.4801C141.881 40.6412 142.159 40.8795 142.349 41.1951C142.542 41.5076 142.638 41.8925 142.638 42.3498C142.638 42.6718 142.571 42.9649 142.44 43.2291C142.311 43.4931 142.125 43.7186 141.881 43.9054C141.636 44.0922 141.346 44.2307 141.008 44.3209L140.748 44.4223H138.568L138.558 43.6687H140.198C140.532 43.6687 140.81 43.6091 141.032 43.49C141.253 43.3708 141.419 43.2114 141.529 43.0116C141.641 42.812 141.698 42.5913 141.698 42.3498C141.698 41.9407 141.577 41.6138 141.336 41.3691C141.094 41.1211 140.707 40.997 140.174 40.997H138.784V47.2728H137.85V40.2386H140.174ZM140.241 44.0842H141.221L142.947 47.2148V47.2728H141.944L140.241 44.0842ZM147.113 43.9779L147.103 43.2388H148.714C149.112 43.2388 149.434 43.1388 149.679 42.9392C149.922 42.7395 150.045 42.4608 150.045 42.1034C150.045 41.7169 149.932 41.4367 149.707 41.2628C149.486 41.0856 149.146 40.997 148.69 40.997H147.321V47.2728H146.385V40.2386H148.69C149.407 40.2386 149.967 40.3883 150.372 40.6879C150.777 40.9842 150.98 41.4592 150.98 42.113C150.98 42.4029 150.907 42.6654 150.758 42.9005C150.61 43.1324 150.403 43.3224 150.136 43.4706C149.873 43.6188 149.566 43.7138 149.216 43.7557L148.888 43.9779H147.113ZM146.741 47.2728L147.277 46.5192H148.844C149.285 46.5192 149.625 46.4047 149.866 46.176C150.108 45.9474 150.228 45.6398 150.228 45.2533C150.228 44.9925 150.181 44.767 150.088 44.577C149.995 44.3837 149.85 44.2356 149.655 44.1325C149.458 44.0294 149.202 43.9779 148.888 43.9779H147.561L147.571 43.2388H149.384L149.582 43.5093C149.919 43.5382 150.205 43.6333 150.44 43.7943C150.675 43.9553 150.853 44.1615 150.976 44.4127C151.101 44.664 151.163 44.9409 151.163 45.2437C151.163 45.9039 150.952 46.408 150.527 46.7558C150.106 47.1005 149.545 47.2728 148.844 47.2728H146.741ZM157.485 40.2386V44.9973C157.485 45.5254 157.367 45.9651 157.128 46.3162C156.894 46.6672 156.582 46.9314 156.194 47.1085C155.807 47.2824 155.388 47.3694 154.935 47.3694C154.459 47.3694 154.027 47.2824 153.642 47.1085C153.259 46.9314 152.955 46.6672 152.73 46.3162C152.509 45.9651 152.398 45.5254 152.398 44.9973V40.2386H153.324V44.9973C153.324 45.3645 153.391 45.6673 153.526 45.9055C153.661 46.1438 153.85 46.3226 154.091 46.4418C154.331 46.5577 154.613 46.6157 154.935 46.6157C155.259 46.6157 155.542 46.5577 155.783 46.4418C156.025 46.3226 156.211 46.1438 156.343 45.9055C156.478 45.6673 156.545 45.3645 156.545 44.9973V40.2386H157.485ZM162.679 45.4949C162.679 45.2727 162.633 45.0843 162.539 44.9297C162.446 44.775 162.278 44.635 162.038 44.5093C161.797 44.3837 161.454 44.2564 161.011 44.1277C160.663 44.0278 160.35 43.9151 160.07 43.7894C159.794 43.6607 159.556 43.5141 159.356 43.3498C159.157 43.1855 159.005 42.9971 158.898 42.7846C158.792 42.572 158.739 42.3288 158.739 42.0551C158.739 41.6879 158.837 41.361 159.033 41.0743C159.233 40.7844 159.511 40.5574 159.867 40.3932C160.224 40.2256 160.642 40.142 161.122 40.142C161.652 40.142 162.102 40.2434 162.471 40.4463C162.841 40.646 163.122 40.9084 163.315 41.2337C163.508 41.5558 163.605 41.9005 163.605 42.2677H162.664C162.664 42.0035 162.609 41.7685 162.496 41.5623C162.387 41.3562 162.218 41.1951 161.99 41.0792C161.761 40.96 161.472 40.9004 161.122 40.9004C160.794 40.9004 160.521 40.9503 160.306 41.0501C160.095 41.1501 159.937 41.2853 159.833 41.456C159.731 41.6268 159.68 41.8216 159.68 42.0406C159.68 42.237 159.736 42.4126 159.849 42.5672C159.961 42.7185 160.137 42.8554 160.379 42.9779C160.62 43.1002 160.932 43.2162 161.315 43.3257C161.845 43.4738 162.28 43.6462 162.621 43.8426C162.962 44.0391 163.213 44.2709 163.373 44.5383C163.537 44.8057 163.619 45.1213 163.619 45.4852C163.619 45.8653 163.518 46.197 163.315 46.4805C163.113 46.7639 162.828 46.9829 162.461 47.1375C162.095 47.2921 161.665 47.3694 161.17 47.3694C160.845 47.3694 160.525 47.3243 160.21 47.2341C159.898 47.1439 159.614 47.0087 159.356 46.8283C159.103 46.6479 158.898 46.4257 158.744 46.1616C158.593 45.8943 158.518 45.585 158.518 45.234H159.453C159.453 45.4755 159.5 45.6833 159.593 45.8572C159.686 46.0311 159.813 46.1745 159.974 46.2872C160.134 46.4 160.317 46.4836 160.524 46.5384C160.729 46.59 160.945 46.6157 161.17 46.6157C161.495 46.6157 161.768 46.5706 161.99 46.4805C162.215 46.387 162.385 46.2566 162.501 46.0891C162.619 45.9217 162.679 45.7235 162.679 45.4949ZM165.808 47.2728H164.873V40.2386H165.808V47.2728ZM172.897 47.2728H171.957L168.432 41.8329V47.2728H167.496V40.2386H168.432L171.971 45.693V40.2386H172.897V47.2728ZM179.007 47.2728H175.299V46.5192H179.007V47.2728ZM175.482 47.2728H174.546V40.2386H175.482V47.2728ZM178.515 44.0166H175.299V43.2628H178.515V44.0166ZM178.959 40.997H175.299V40.2386H178.959V40.997ZM183.897 45.4949C183.897 45.2727 183.851 45.0843 183.757 44.9297C183.664 44.775 183.496 44.635 183.256 44.5093C183.014 44.3837 182.672 44.2564 182.229 44.1277C181.881 44.0278 181.568 43.9151 181.288 43.7894C181.012 43.6607 180.774 43.5141 180.574 43.3498C180.375 43.1855 180.223 42.9971 180.116 42.7846C180.01 42.572 179.957 42.3288 179.957 42.0551C179.957 41.6879 180.055 41.361 180.251 41.0743C180.451 40.7844 180.729 40.5574 181.085 40.3932C181.442 40.2256 181.86 40.142 182.34 40.142C182.87 40.142 183.32 40.2434 183.689 40.4463C184.059 40.646 184.34 40.9084 184.533 41.2337C184.726 41.5558 184.823 41.9005 184.823 42.2677H183.882C183.882 42.0035 183.826 41.7685 183.713 41.5623C183.605 41.3562 183.436 41.1951 183.208 41.0792C182.979 40.96 182.69 40.9004 182.34 40.9004C182.011 40.9004 181.739 40.9503 181.524 41.0501C181.312 41.1501 181.154 41.2853 181.051 41.456C180.949 41.6268 180.898 41.8216 180.898 42.0406C180.898 42.237 180.954 42.4126 181.067 42.5672C181.179 42.7185 181.355 42.8554 181.597 42.9779C181.838 43.1002 182.15 43.2162 182.532 43.3257C183.063 43.4738 183.498 43.6462 183.839 43.8426C184.18 44.0391 184.43 44.2709 184.591 44.5383C184.755 44.8057 184.837 45.1213 184.837 45.4852C184.837 45.8653 184.736 46.197 184.533 46.4805C184.331 46.7639 184.046 46.9829 183.679 47.1375C183.313 47.2921 182.883 47.3694 182.388 47.3694C182.063 47.3694 181.743 47.3243 181.428 47.2341C181.116 47.1439 180.832 47.0087 180.574 46.8283C180.321 46.6479 180.116 46.4257 179.962 46.1616C179.81 45.8943 179.736 45.585 179.736 45.234H180.671C180.671 45.4755 180.718 45.6833 180.811 45.8572C180.904 46.0311 181.03 46.1745 181.192 46.2872C181.352 46.4 181.535 46.4836 181.742 46.5384C181.947 46.59 182.163 46.6157 182.388 46.6157C182.713 46.6157 182.986 46.5706 183.208 46.4805C183.433 46.387 183.603 46.2566 183.719 46.0891C183.837 45.9217 183.897 45.7235 183.897 45.4949ZM189.761 45.4949C189.761 45.2727 189.714 45.0843 189.62 44.9297C189.527 44.775 189.36 44.635 189.119 44.5093C188.879 44.3837 188.536 44.2564 188.092 44.1277C187.745 44.0278 187.431 43.9151 187.151 43.7894C186.875 43.6607 186.638 43.5141 186.438 43.3498C186.238 43.1855 186.086 42.9971 185.981 42.7846C185.874 42.572 185.821 42.3288 185.821 42.0551C185.821 41.6879 185.919 41.361 186.115 41.0743C186.314 40.7844 186.593 40.5574 186.949 40.3932C187.306 40.2256 187.724 40.142 188.203 40.142C188.734 40.142 189.184 40.2434 189.553 40.4463C189.923 40.646 190.204 40.9084 190.397 41.2337C190.59 41.5558 190.687 41.9005 190.687 42.2677H189.747C189.747 42.0035 189.689 41.7685 189.578 41.5623C189.468 41.3562 189.299 41.1951 189.071 41.0792C188.842 40.96 188.554 40.9004 188.203 40.9004C187.876 40.9004 187.603 40.9503 187.388 41.0501C187.176 41.1501 187.019 41.2853 186.915 41.456C186.812 41.6268 186.761 41.8216 186.761 42.0406C186.761 42.237 186.818 42.4126 186.93 42.5672C187.043 42.7185 187.219 42.8554 187.461 42.9779C187.701 43.1002 188.014 43.2162 188.396 43.3257C188.927 43.4738 189.362 43.6462 189.703 43.8426C190.044 44.0391 190.294 44.2709 190.455 44.5383C190.619 44.8057 190.701 45.1213 190.701 45.4852C190.701 45.8653 190.6 46.197 190.397 46.4805C190.194 46.7639 189.91 46.9829 189.544 47.1375C189.177 47.2921 188.747 47.3694 188.251 47.3694C187.926 47.3694 187.607 47.3243 187.292 47.2341C186.98 47.1439 186.695 47.0087 186.438 46.8283C186.185 46.6479 185.981 46.4257 185.826 46.1616C185.674 45.8943 185.599 45.585 185.599 45.234H186.535C186.535 45.4755 186.581 45.6833 186.674 45.8572C186.767 46.0311 186.895 46.1745 187.056 46.2872C187.216 46.4 187.399 46.4836 187.606 46.5384C187.811 46.59 188.026 46.6157 188.251 46.6157C188.576 46.6157 188.849 46.5706 189.071 46.4805C189.297 46.387 189.467 46.2566 189.582 46.0891C189.702 45.9217 189.761 45.7235 189.761 45.4949ZM195.34 47.2728H194.405V40.2386H195.34V47.2728ZM202.428 47.2728H201.488L197.963 41.8329V47.2728H197.027V40.2386H197.963L201.503 45.693V40.2386H202.428V47.2728ZM206.961 47.2728L206.971 46.5192H208.427C208.926 46.5192 209.343 46.4144 209.676 46.2051C210.011 45.9924 210.261 45.6962 210.429 45.3161C210.599 44.9329 210.685 44.4836 210.685 43.9682V43.5334C210.685 42.9956 210.599 42.5382 210.429 42.1614C210.261 41.7845 210.015 41.4963 209.691 41.2966C209.367 41.0969 208.973 40.997 208.51 40.997H206.933V40.2386H208.51C209.126 40.2386 209.667 40.3738 210.129 40.6444C210.596 40.9117 210.959 41.2933 211.22 41.7894C211.48 42.2821 211.611 42.8667 211.611 43.5431V43.9682C211.611 44.6478 211.48 45.234 211.22 45.7268C210.959 46.2196 210.591 46.6013 210.115 46.8718C209.64 47.1391 209.077 47.2728 208.427 47.2728H206.961ZM207.463 47.2728H206.528V40.2386H207.463V47.2728ZM214.012 47.2728H213.076V40.2386H214.012V47.2728ZM220.889 46.35C220.801 46.4756 220.664 46.619 220.474 46.78C220.287 46.9378 220.026 47.0763 219.693 47.1955C219.361 47.3115 218.932 47.3694 218.404 47.3694C217.836 47.3694 217.329 47.2374 216.886 46.9732C216.446 46.7091 216.1 46.3274 215.849 45.8282C215.599 45.329 215.473 44.7299 215.473 44.0311V43.4754C215.473 42.7766 215.582 42.1791 215.8 41.683C216.02 41.1838 216.338 40.8022 216.755 40.5381C217.176 40.274 217.69 40.142 218.294 40.142C218.831 40.142 219.281 40.2353 219.644 40.4222C220.008 40.6057 220.291 40.8602 220.493 41.1855C220.699 41.5108 220.831 41.8811 220.889 42.2966H219.953C219.911 42.0422 219.828 41.8102 219.703 41.6009C219.58 41.3884 219.405 41.2193 219.177 41.0937C218.949 40.9648 218.656 40.9004 218.299 40.9004C217.864 40.9004 217.508 41.0051 217.228 41.2145C216.952 41.4206 216.746 41.7153 216.611 42.0986C216.48 42.4818 216.413 42.9375 216.413 43.4658V44.0311C216.413 44.5722 216.497 45.0359 216.664 45.4224C216.831 45.8057 217.065 46.1004 217.363 46.3065C217.663 46.5127 218.012 46.6157 218.41 46.6157C218.741 46.6157 219.008 46.5883 219.21 46.5336C219.416 46.4756 219.576 46.408 219.693 46.3307C219.808 46.2501 219.897 46.1745 219.957 46.1036V44.519H218.337V43.7702H220.889V46.35ZM223.435 47.2728H222.499V40.2386H223.435V47.2728ZM227.722 47.2728H226.796V40.2386H227.722V47.2728ZM229.974 40.997H224.548V40.2386H229.974V40.997Z" fill="white"/>
</g>
<defs>
<clipPath id="clip0_1_87">
<rect width="230" height="52" fill="white"/>
</clipPath>
</defs>
</svg>
