<svg width="24" height="24" viewBox="0 0 24 24" fill="none" xmlns="http://www.w3.org/2000/svg">
<g clip-path="url(#clip0_32_6032)">
<path d="M15.6006 0.599784V0.550582C14.4642 0.193565 13.2551 -0.000244141 12.0005 -0.000244141C5.37261 -0.000244141 0 5.37241 0 12.0003C0 12.4053 0.0216007 12.8056 0.0606023 13.2004H15.6006V0.599784Z" fill="#3F51B5"/>
<path d="M15.5986 4.19901H21.1068C20.5326 3.52938 19.884 2.92875 19.1766 2.39893H15.5986V4.19901Z" fill="#ECEFF1"/>
<path d="M23.9349 13.1995H15.5952H0.0551758C0.116378 13.8163 0.236983 14.4139 0.388189 14.9995H23.6025C23.7531 14.4139 23.8737 13.8163 23.9349 13.1995Z" fill="#ECEFF1"/>
<path d="M20.5668 20.3992H3.44092C4.11714 21.0886 4.87977 21.6886 5.70481 22.1993H18.3029C19.1279 21.6886 19.8906 21.0886 20.5668 20.3992Z" fill="#ECEFF1"/>
<path d="M22.9918 16.7983H1.00098C1.27639 17.4284 1.604 18.0302 1.97901 18.5984H22.0138C22.3888 18.0302 22.7158 17.4284 22.9918 16.7983Z" fill="#ECEFF1"/>
<path d="M15.5986 7.79776H23.2285C22.9939 7.17134 22.7119 6.56951 22.3807 5.99768H15.5986V7.79776Z" fill="#ECEFF1"/>
<path d="M15.5986 11.3987H23.969C23.9384 10.7867 23.8772 10.1831 23.7584 9.59863H15.5986V11.3987Z" fill="#ECEFF1"/>
<path d="M15.5986 2.39859H19.1772C18.1433 1.62456 16.9865 1.00893 15.7324 0.598511H15.5986V2.39859Z" fill="#F44336"/>
<path d="M15.5986 5.99955H22.3807C22.0105 5.35992 21.5851 4.75749 21.1074 4.19946H15.5986V5.99955Z" fill="#F44336"/>
<path d="M15.5986 9.5983H23.7578C23.6317 8.97787 23.4457 8.38024 23.2279 7.79822H15.5986V9.5983Z" fill="#F44336"/>
<path d="M15.5986 13.1993H23.9384C23.9774 12.8044 23.999 12.4042 23.999 11.9992C23.999 11.7964 23.9786 11.599 23.969 11.3992H15.5986V13.1993Z" fill="#F44336"/>
<path d="M23.6077 15H0.394043C0.553649 15.6198 0.753457 16.2235 1.00607 16.8001H22.9963C23.2483 16.2235 23.4481 15.6198 23.6077 15Z" fill="#F44336"/>
<path d="M22.0201 18.5988H1.98535C2.41197 19.2456 2.89919 19.848 3.43981 20.3988H20.5663C21.1063 19.848 21.5935 19.2456 22.0201 18.5988Z" fill="#F44336"/>
<path d="M5.69971 22.1997C7.53218 23.3338 9.68506 23.9998 11.9988 23.9998C14.3124 23.9998 16.4653 23.3338 18.2978 22.1997H5.69971Z" fill="#F44336"/>
<path d="M3.74867 5.39905L4.02768 5.99188L4.6487 6.08548L4.19869 6.5475L4.30669 7.19913L3.74867 6.89192L3.19065 7.19913L3.29865 6.5475L2.84863 6.08548L3.46966 5.99188L3.74867 5.39905Z" fill="white"/>
<path d="M6.15004 5.39905L6.42905 5.99188L7.05007 6.08548L6.60005 6.5475L6.70806 7.19913L6.15004 6.89192L5.59201 7.19913L5.70002 6.5475L5.25 6.08548L5.87102 5.99188L6.15004 5.39905Z" fill="white"/>
<path d="M1.34574 6.8953L1.90376 7.20251L1.79575 6.55088L2.24577 6.08886L1.62475 5.99526L1.62235 5.98926C1.42434 6.33007 1.24253 6.68109 1.07812 7.04231L1.34574 6.8953Z" fill="white"/>
<path d="M8.5514 5.39905L8.83041 5.99188L9.45144 6.08548L9.00142 6.5475L9.10942 7.19913L8.5514 6.89192L7.99338 7.19913L8.10138 6.5475L7.65137 6.08548L8.27239 5.99188L8.5514 5.39905Z" fill="white"/>
<path d="M10.9484 5.39905L11.2274 5.99188L11.8484 6.08548L11.3984 6.5475L11.5064 7.19913L10.9484 6.89192L10.3904 7.19913L10.4984 6.5475L10.0483 6.08548L10.6694 5.99188L10.9484 5.39905Z" fill="white"/>
<path d="M13.1984 5.39905L13.4774 5.99188L14.0984 6.08548L13.6484 6.5475L13.7564 7.19913L13.1984 6.89192L12.6404 7.19913L12.7484 6.5475L12.2983 6.08548L12.9194 5.99188L13.1984 5.39905Z" fill="white"/>
<path d="M3.74867 10.1995L4.02768 10.7923L4.6487 10.8859L4.19869 11.3479L4.30669 11.9995L3.74867 11.6923L3.19065 11.9995L3.29865 11.3479L2.84863 10.8859L3.46966 10.7923L3.74867 10.1995Z" fill="white"/>
<path d="M6.15004 10.1995L6.42905 10.7923L7.05007 10.8859L6.60005 11.3479L6.70806 11.9995L6.15004 11.6923L5.59201 11.9995L5.70002 11.3479L5.25 10.8859L5.87102 10.7923L6.15004 10.1995Z" fill="white"/>
<path d="M8.5514 10.1995L8.83041 10.7923L9.45144 10.8859L9.00142 11.3479L9.10942 11.9995L8.5514 11.6923L7.99338 11.9995L8.10138 11.3479L7.65137 10.8859L8.27239 10.7923L8.5514 10.1995Z" fill="white"/>
<path d="M1.34925 10.1995L1.62826 10.7923L2.24929 10.8859L1.79927 11.3479L1.90728 11.9995L1.34925 11.6923L0.791232 11.9995L0.899236 11.3479L0.449219 10.8859L1.07024 10.7923L1.34925 10.1995Z" fill="white"/>
<path d="M10.9484 10.1995L11.2274 10.7923L11.8484 10.8859L11.3984 11.3479L11.5064 11.9995L10.9484 11.6923L10.3904 11.9995L10.4984 11.3479L10.0483 10.8859L10.6694 10.7923L10.9484 10.1995Z" fill="white"/>
<path d="M13.1984 10.1995L13.4774 10.7923L14.0984 10.8859L13.6484 11.3479L13.7564 11.9995L13.1984 11.6923L12.6404 11.9995L12.7484 11.3479L12.2983 10.8859L12.9194 10.7923L13.1984 10.1995Z" fill="white"/>
<path d="M4.34925 7.79822L4.62826 8.39105L5.24929 8.48465L4.79927 8.94667L4.90728 9.5983L4.34925 9.29109L3.79123 9.5983L3.89924 8.94667L3.44922 8.48465L4.07024 8.39105L4.34925 7.79822Z" fill="white"/>
<path d="M6.75111 7.79822L7.03012 8.39105L7.65114 8.48465L7.20113 8.94667L7.30913 9.5983L6.75111 9.29109L6.19309 9.5983L6.30109 8.94667L5.85107 8.48465L6.4721 8.39105L6.75111 7.79822Z" fill="white"/>
<path d="M1.94789 7.79822L2.2269 8.39105L2.84792 8.48465L2.3979 8.94667L2.50591 9.5983L1.94789 9.29109L1.38986 9.5983L1.49787 8.94667L1.04785 8.48465L1.66888 8.39105L1.94789 7.79822Z" fill="white"/>
<path d="M9.14808 7.79822L9.42709 8.39105L10.0481 8.48465L9.5981 8.94667L9.7061 9.5983L9.14808 9.29109L8.59006 9.5983L8.69806 8.94667L8.24805 8.48465L8.86907 8.39105L9.14808 7.79822Z" fill="white"/>
<path d="M11.549 7.79822L11.828 8.39105L12.449 8.48465L11.999 8.94667L12.107 9.5983L11.549 9.29109L10.9909 9.5983L11.0989 8.94667L10.6489 8.48465L11.2699 8.39105L11.549 7.79822Z" fill="white"/>
<path d="M13.799 7.79822L14.078 8.39105L14.699 8.48465L14.249 8.94667L14.357 9.5983L13.799 9.29109L13.2409 9.5983L13.3489 8.94667L12.8989 8.48465L13.5199 8.39105L13.799 7.79822Z" fill="white"/>
<path d="M4.34925 2.99976L4.62826 3.59258L5.24929 3.68619L4.79927 4.14821L4.90728 4.79984L4.34925 4.49263L3.79123 4.79984L3.89924 4.14821L3.44922 3.68619L4.07024 3.59258L4.34925 2.99976Z" fill="white"/>
<path d="M6.75111 2.99976L7.03012 3.59258L7.65114 3.68619L7.20113 4.14821L7.30913 4.79984L6.75111 4.49263L6.19309 4.79984L6.30109 4.14821L5.85107 3.68619L6.4721 3.59258L6.75111 2.99976Z" fill="white"/>
<path d="M9.14808 2.99976L9.42709 3.59258L10.0481 3.68619L9.5981 4.14821L9.7061 4.79984L9.14808 4.49263L8.59006 4.79984L8.69806 4.14821L8.24805 3.68619L8.86907 3.59258L9.14808 2.99976Z" fill="white"/>
<path d="M11.549 2.99976L11.828 3.59258L12.449 3.68619L11.999 4.14821L12.107 4.79984L11.549 4.49263L10.9909 4.79984L11.0989 4.14821L10.6489 3.68619L11.2699 3.59258L11.549 2.99976Z" fill="white"/>
<path d="M13.799 2.99976L14.078 3.59258L14.699 3.68619L14.249 4.14821L14.357 4.79984L13.799 4.49263L13.2409 4.79984L13.3489 4.14821L12.8989 3.68619L13.5199 3.59258L13.799 2.99976Z" fill="white"/>
<path d="M6.70247 2.40113L6.59447 1.74949L7.04448 1.28747L6.71387 1.23767C6.36046 1.41108 6.01784 1.60129 5.68483 1.8077L5.58643 2.40113L6.14445 2.09391L6.70247 2.40113Z" fill="white"/>
<path d="M8.5514 0.598511L8.83041 1.19134L9.45144 1.28494L9.00142 1.74696L9.10942 2.39859L8.5514 2.09138L7.99338 2.39859L8.10138 1.74696L7.65137 1.28494L8.27239 1.19134L8.5514 0.598511Z" fill="white"/>
<path d="M10.9484 0.598511L11.2274 1.19134L11.8484 1.28494L11.3984 1.74696L11.5064 2.39859L10.9484 2.09138L10.3904 2.39859L10.4984 1.74696L10.0483 1.28494L10.6694 1.19134L10.9484 0.598511Z" fill="white"/>
<path d="M13.1984 0.598511L13.4774 1.19134L14.0984 1.28554L13.6484 1.74756L13.7564 2.39859L13.1984 2.09138L12.6404 2.39859L12.7484 1.74696L12.2983 1.28494L12.9194 1.19134L13.1984 0.598511Z" fill="white"/>
</g>
<defs>
<clipPath id="clip0_32_6032">
<rect width="24" height="24" fill="white"/>
</clipPath>
</defs>
</svg>
