<svg width="24" height="24" viewBox="0 0 24 24" fill="none" xmlns="http://www.w3.org/2000/svg">
<g clip-path="url(#clip0_32_6018)">
<path d="M0 4.36376C0 2.30672 0 1.2782 0.63904 0.639162C1.27808 0.00012207 2.3066 0.00012207 4.36364 0.00012207H19.6364C21.6934 0.00012207 22.7219 0.00012207 23.361 0.639162C24 1.2782 24 2.30672 24 4.36376V7.68012H0V4.36376Z" fill="#F3F5F9"/>
<rect y="7.67896" width="24" height="8.64" fill="#3C89E3"/>
<path d="M0 16.321H24V20.5101C24 21.7321 24 22.343 23.7622 22.8098C23.553 23.2203 23.2192 23.5541 22.8087 23.7632C22.342 24.001 21.731 24.001 20.5091 24.001H3.49091C2.26898 24.001 1.65801 24.001 1.19129 23.7632C0.780758 23.5541 0.446982 23.2203 0.237804 22.8098C0 22.343 0 21.7321 0 20.5101V16.321Z" fill="#E31D1C"/>
</g>
<defs>
<clipPath id="clip0_32_6018">
<rect width="24" height="24" fill="white"/>
</clipPath>
</defs>
</svg>
