<svg width="37" height="36" viewBox="0 0 37 36" fill="none" xmlns="http://www.w3.org/2000/svg">
<path d="M31.4301 12.675C29.8551 5.745 23.8101 2.625 18.5001 2.625C18.5001 2.625 18.5001 2.625 18.4851 2.625C13.1901 2.625 7.13014 5.73 5.55514 12.66C3.80014 20.4 8.54014 26.955 12.8301 31.08C14.4201 32.61 16.4601 33.375 18.5001 33.375C20.5401 33.375 22.5801 32.61 24.1551 31.08C28.4451 26.955 33.1851 20.415 31.4301 12.675ZM18.5001 20.19C15.8901 20.19 13.7751 18.075 13.7751 15.465C13.7751 12.855 15.8901 10.74 18.5001 10.74C21.1101 10.74 23.2251 12.855 23.2251 15.465C23.2251 18.075 21.1101 20.19 18.5001 20.19Z" fill="#A3FF00"/>
</svg>
