<svg width="42" height="64" viewBox="0 0 42 64" fill="none" xmlns="http://www.w3.org/2000/svg">
<path d="M40.3334 16.5833V47.4166C40.3334 59.75 37.8667 62.8333 28 62.8333H13.2C3.33337 62.8333 0.866699 59.75 0.866699 47.4166V16.5833C0.866699 4.24996 3.33337 1.16663 13.2 1.16663H28C37.8667 1.16663 40.3334 4.24996 40.3334 16.5833Z" stroke="#A3FF00" stroke-width="1.5" stroke-linecap="round" stroke-linejoin="round"/>
<path d="M25.5332 11.9583H15.6665" stroke="#A3FF00" stroke-width="1.5" stroke-linecap="round" stroke-linejoin="round"/>
<path d="M20.6002 53.8916C22.7118 53.8916 24.4235 51.7519 24.4235 49.1124C24.4235 46.473 22.7118 44.3333 20.6002 44.3333C18.4886 44.3333 16.7769 46.473 16.7769 49.1124C16.7769 51.7519 18.4886 53.8916 20.6002 53.8916Z" stroke="#A3FF00" stroke-width="1.5" stroke-linecap="round" stroke-linejoin="round"/>
</svg>
