<svg width="74" height="74" viewBox="0 0 74 74" fill="none" xmlns="http://www.w3.org/2000/svg">
<path d="M30.8332 52.2624H19.1473C8.7565 52.2624 6.1665 49.6724 6.1665 39.2816V20.7816C6.1665 10.3908 8.7565 7.80078 19.1473 7.80078H51.6148C62.0057 7.80078 64.5957 10.3908 64.5957 20.7816" stroke="#A3FF00" stroke-width="1.5" stroke-linecap="round" stroke-linejoin="round"/>
<path d="M30.8335 66.1991V52.2625" stroke="#A3FF00" stroke-width="1.5" stroke-linecap="round" stroke-linejoin="round"/>
<path d="M6.1665 39.9292H30.8332" stroke="#A3FF00" stroke-width="1.5" stroke-linecap="round" stroke-linejoin="round"/>
<path d="M20.7817 66.1992H30.8334" stroke="#A3FF00" stroke-width="3" stroke-linecap="round" stroke-linejoin="round"/>
<path d="M67.8334 39.4666V57.0725C67.8334 64.38 66.0143 66.1991 58.7068 66.1991H47.7609C40.4534 66.1991 38.6343 64.38 38.6343 57.0725V39.4666C38.6343 32.1591 40.4534 30.34 47.7609 30.34H58.7068C66.0143 30.34 67.8334 32.1591 67.8334 39.4666Z" stroke="#A3FF00" stroke-width="1.5" stroke-linecap="round" stroke-linejoin="round"/>
<path d="M53.1707 56.2708H53.1984" stroke="#A3FF00" stroke-width="2" stroke-linecap="round" stroke-linejoin="round"/>
</svg>
